<?xml version="1.0" standalone="no"?>
<!DOCTYPE svg PUBLIC "-//W3C//DTD SVG 20010904//EN"
 "http://www.w3.org/TR/2001/REC-SVG-20010904/DTD/svg10.dtd">
<svg version="1.0" xmlns="http://www.w3.org/2000/svg"
 width="500.000000pt" height="500.000000pt" viewBox="0 0 500.000000 500.000000"
 preserveAspectRatio="xMidYMid meet">
<metadata>
Created by potrace 1.14, written by Peter Selinger 2001-2017
</metadata>
<g transform="translate(0.000000,500.000000) scale(0.100000,-0.100000)"
fill="#000000" stroke="none">
<path d="M1238 4149 c-17 -9 -18 -57 -18 -769 l0 -760 -284 0 c-245 0 -287 -2
-300 -16 -14 -14 -16 -80 -16 -587 1 -520 2 -577 18 -623 30 -85 86 -141 185
-183 l62 -26 535 -3 c294 -2 544 -1 556 2 27 7 38 34 23 52 -9 11 -84 14 -410
14 -220 0 -399 4 -399 8 0 5 14 21 31 38 18 16 41 49 53 74 21 45 21 53 24
898 l3 852 1494 0 1495 0 0 -831 c0 -594 -3 -843 -11 -870 -17 -54 -62 -105
-123 -137 l-51 -27 -802 -3 -802 -3 -7 -21 c-15 -49 -28 -49 821 -46 l790 3
58 23 c81 33 135 78 171 142 l31 55 3 1368 2 1367 -25 10 c-37 14 -3084 13
-3107 -1z m3052 -509 l0 -450 -1495 0 -1495 0 0 450 0 450 1495 0 1495 0 0
-450z m-3072 -1625 c1 -340 -1 -548 -8 -581 -13 -63 -52 -111 -120 -148 -45
-24 -64 -29 -129 -29 -85 0 -140 21 -199 76 -61 58 -62 71 -62 674 l0 543 258
-2 257 -3 3 -530z"/>
<path d="M3647 3956 c-154 -58 -196 -239 -80 -348 15 -14 58 -41 96 -59 37
-17 66 -34 64 -36 -2 -2 -41 4 -86 13 -104 21 -108 18 -117 -91 -5 -63 -3 -83
7 -91 45 -34 261 -46 342 -18 132 45 180 222 87 327 -15 17 -58 47 -95 66 -36
18 -64 35 -61 38 2 3 28 0 56 -6 84 -18 97 -15 109 22 5 17 13 62 16 99 7 62
6 67 -16 78 -35 19 -275 24 -322 6z m257 -65 c3 -5 3 -23 0 -41 l-7 -32 -67 7
c-75 8 -123 -8 -135 -45 -13 -40 5 -59 88 -100 98 -48 109 -56 130 -97 22 -43
21 -85 -3 -133 -29 -57 -62 -70 -172 -70 -128 0 -142 5 -134 43 3 17 8 32 9
34 2 2 29 -2 60 -7 70 -14 117 -2 136 32 25 44 4 70 -96 122 -108 57 -128 81
-128 158 1 62 14 85 70 119 24 15 50 19 137 19 59 0 109 -4 112 -9z"/>
<path d="M1682 3948 c-9 -9 -12 -91 -12 -309 0 -257 2 -300 16 -313 24 -25
195 -23 217 2 34 37 16 152 -23 152 -30 0 -40 -14 -40 -56 l0 -44 -45 0 -45 0
0 255 0 255 60 0 59 0 65 -135 c57 -118 68 -135 89 -135 48 0 51 22 13 102
-20 40 -36 74 -36 75 0 1 13 0 29 -3 34 -7 51 15 51 65 0 29 2 31 40 31 l40 0
0 -255 0 -256 -56 3 -56 3 -66 130 c-58 111 -71 130 -93 133 -14 2 -31 -4 -38
-12 -11 -13 0 -40 64 -161 42 -79 85 -149 95 -155 27 -15 192 -13 213 3 16 11
17 39 15 322 l-3 310 -115 0 -115 0 -5 -73 -5 -74 -37 76 -38 76 -113 0 c-75
0 -117 -4 -125 -12z"/>
<path d="M2267 3954 c-4 -4 -7 -146 -7 -315 0 -295 1 -309 19 -319 31 -16 383
-13 406 4 16 12 19 27 20 97 l0 84 -89 5 c-59 3 -91 9 -94 18 -3 9 15 12 65
12 40 0 74 5 81 12 16 16 16 150 0 166 -7 7 -39 12 -74 12 -35 0 -66 5 -69 10
-4 6 23 10 73 10 102 0 107 5 107 119 l0 86 -216 3 c-118 1 -218 -1 -222 -4z
m361 -96 l-3 -33 -80 -3 c-61 -2 -83 -7 -92 -19 -14 -18 -17 -101 -5 -120 4
-7 37 -13 77 -15 68 -3 70 -4 73 -30 l3 -28 -70 0 c-59 0 -72 -3 -81 -19 -14
-27 -13 -114 2 -129 7 -7 44 -12 96 -12 l83 0 -3 -32 -3 -33 -142 -3 -143 -3
0 256 0 255 146 0 145 0 -3 -32z"/>
<path d="M2723 3944 c-5 -13 11 -168 37 -369 5 -38 15 -109 21 -158 8 -67 15
-90 29 -97 25 -13 236 -13 260 0 11 6 22 26 26 45 9 49 20 51 28 5 4 -24 14
-43 25 -50 29 -15 243 -13 264 3 11 8 19 39 26 97 26 209 42 381 44 455 l2 80
-109 3 c-67 2 -113 -1 -121 -8 -9 -8 -15 -8 -20 0 -8 13 -220 13 -245 0 -13
-7 -21 -7 -25 0 -4 6 -55 10 -121 10 -94 0 -116 -3 -121 -16z m233 -181 c-13
-85 -19 -149 -14 -158 12 -21 55 -19 66 3 5 9 18 77 28 150 l18 132 58 0 c32
0 58 -3 58 -7 0 -33 44 -271 52 -280 15 -18 57 -16 65 3 3 9 -4 77 -16 151
-12 74 -21 136 -19 137 2 2 38 1 82 -2 l78 -4 -5 -37 c-3 -20 -16 -134 -28
-253 l-23 -218 -76 0 -76 0 -23 103 c-27 122 -39 151 -69 155 -36 5 -49 -14
-61 -86 -6 -37 -16 -91 -22 -119 l-10 -53 -75 0 c-51 0 -76 4 -79 13 -2 6 -11
71 -19 142 -23 200 -35 297 -41 328 l-4 27 67 1 c37 0 76 4 87 8 11 5 21 8 21
7 1 0 -8 -65 -20 -143z"/>
<path d="M2940 3083 c-25 -2 -85 -13 -135 -25 -297 -70 -526 -275 -589 -529
-20 -83 -21 -227 0 -304 22 -85 75 -190 132 -260 l49 -60 -19 -30 c-25 -41
-23 -68 9 -105 18 -23 24 -36 17 -46 -5 -7 -38 -58 -74 -113 l-65 -100 -402
-1 c-243 0 -412 -4 -428 -10 -20 -7 -26 -16 -23 -33 l3 -22 398 -5 397 -5
-150 -224 c-163 -244 -172 -266 -127 -315 12 -13 46 -37 75 -52 69 -35 131
-30 173 12 15 16 111 153 212 304 l185 275 790 3 c698 2 791 4 802 18 11 12
10 18 -4 32 -15 16 -79 17 -776 22 l-759 5 30 47 c28 42 33 46 51 37 37 -20
100 -4 130 32 l28 33 152 1 c202 2 311 30 466 122 101 59 155 105 218 187 103
130 139 234 138 401 0 140 -17 205 -88 325 -149 253 -484 410 -816 383z m210
-77 c187 -31 326 -99 443 -218 107 -110 167 -241 175 -387 5 -98 -8 -167 -53
-267 -38 -84 -49 -98 -140 -189 -82 -81 -171 -134 -300 -177 -85 -29 -99 -31
-245 -32 -136 -1 -164 2 -229 23 -268 84 -449 254 -506 476 -18 70 -20 192 -4
267 42 202 247 408 471 475 142 42 257 50 388 29z m-640 -1191 c52 -38 143
-82 228 -110 43 -14 51 -19 41 -31 -6 -8 -16 -14 -22 -14 -8 0 -306 146 -316
156 -5 5 7 34 15 34 3 0 28 -16 54 -35z m43 -136 c34 -17 64 -33 66 -35 3 -3
-46 -77 -368 -558 l-133 -198 -34 5 c-47 8 -97 45 -91 67 4 16 488 749 495
750 1 0 31 -14 65 -31z"/>
<path d="M2915 2934 c-400 -65 -644 -412 -518 -737 63 -163 225 -304 418 -363
86 -26 325 -27 410 -1 126 39 204 85 293 173 86 86 123 148 152 256 16 61 9
207 -15 273 -62 176 -226 319 -435 380 -55 16 -249 28 -305 19z m331 -103
c149 -58 249 -144 311 -271 36 -73 38 -78 38 -185 0 -106 -1 -113 -37 -188
-80 -169 -239 -275 -458 -307 -176 -25 -372 37 -504 160 -266 249 -160 665
201 791 93 33 131 38 253 35 100 -3 126 -8 196 -35z"/>
<path d="M2550 2375 l0 -195 35 0 35 0 0 80 0 80 45 0 c41 0 45 2 45 25 0 23
-4 25 -45 25 l-45 0 0 65 0 65 60 0 c57 0 60 1 60 25 0 25 0 25 -95 25 l-95 0
0 -195z"/>
<path d="M2815 2548 c-8 -36 -56 -289 -62 -330 -5 -37 -5 -38 25 -38 30 0 42
14 42 51 0 16 7 19 44 19 45 0 56 -10 56 -51 0 -16 7 -19 41 -19 32 0 40 3 36
14 -3 8 -21 96 -39 195 l-33 181 -52 0 c-46 0 -53 -3 -58 -22z m70 -152 c19
-100 20 -96 -15 -96 -26 0 -30 4 -30 26 0 32 22 155 27 150 2 -2 10 -38 18
-80z"/>
<path d="M3030 2375 l0 -195 35 0 35 0 0 58 c0 32 6 66 13 76 12 16 17 10 47
-58 32 -75 33 -76 70 -76 l38 0 -48 107 -49 106 19 38 c11 21 33 60 50 88 l29
51 -33 0 c-39 0 -43 -4 -86 -85 -18 -33 -37 -64 -41 -69 -5 -6 -9 25 -9 72 l0
82 -35 0 -35 0 0 -195z"/>
<path d="M3300 2375 l0 -195 100 0 100 0 0 25 c0 24 -2 25 -65 25 l-66 0 3 58
3 57 53 3 c51 3 53 4 50 30 -3 25 -7 27 -56 30 l-53 3 3 52 3 52 63 3 c58 3
62 4 62 27 0 25 -1 25 -100 25 l-100 0 0 -195z"/>
<path d="M1423 3003 c-20 -7 -15 -41 6 -53 21 -11 1008 -15 1049 -4 18 5 22
13 20 33 l-3 26 -530 2 c-291 1 -536 -1 -542 -4z"/>
<path d="M3552 2998 c-7 -7 -12 -18 -12 -25 0 -30 41 -34 330 -31 304 3 328 7
304 46 -10 15 -40 17 -310 20 -225 2 -303 -1 -312 -10z"/>
<path d="M1426 2787 c-10 -7 -16 -22 -14 -33 3 -18 16 -19 428 -19 l425 0 3
26 c2 20 -2 28 -20 33 -13 3 -199 6 -414 6 -307 0 -394 -3 -408 -13z"/>
<path d="M3784 2786 c-15 -12 -17 -18 -8 -33 10 -16 30 -18 196 -21 193 -3
217 2 202 41 -9 23 -36 27 -210 27 -124 0 -165 -3 -180 -14z"/>
<path d="M1423 2573 c-22 -9 -15 -50 10 -57 12 -3 175 -6 363 -6 281 0 344 3
360 14 15 12 17 18 8 33 -10 17 -36 18 -370 20 -197 1 -365 -1 -371 -4z"/>
<path d="M3881 2567 c-15 -19 -5 -44 22 -51 12 -3 72 -6 133 -6 122 0 159 12
138 47 -10 16 -28 18 -146 21 -106 2 -138 0 -147 -11z"/>
<path d="M1414 2345 c-4 -8 -4 -22 0 -30 5 -13 55 -15 365 -15 350 0 360 1
366 20 3 11 3 24 0 30 -4 6 -135 10 -366 10 -310 0 -360 -2 -365 -15z"/>
<path d="M3904 2345 c-16 -39 0 -45 129 -45 130 0 155 8 141 44 -9 23 -261 24
-270 1z"/>
<path d="M1423 2143 c-18 -7 -16 -50 3 -57 9 -3 181 -6 383 -6 272 0 370 3
379 12 17 17 15 45 -4 52 -19 7 -743 7 -761 -1z"/>
<path d="M3856 2135 c-19 -19 -11 -43 18 -50 11 -3 81 -4 155 -3 112 3 136 6
144 20 8 12 7 21 -2 32 -19 23 -292 24 -315 1z"/>
<path d="M1414 1915 c-4 -8 -4 -22 0 -30 5 -13 63 -15 463 -13 l458 3 0 25 0
25 -458 3 c-400 2 -458 0 -463 -13z"/>
<path d="M3711 1916 c-6 -7 -9 -21 -5 -30 5 -14 33 -16 234 -16 201 0 229 2
234 16 15 40 -7 44 -234 44 -172 0 -220 -3 -229 -14z"/>
<path d="M1423 1713 c-23 -9 -15 -52 10 -58 12 -3 197 -4 411 -3 350 3 390 5
399 20 8 12 7 21 -2 32 -12 14 -60 16 -410 15 -218 0 -402 -3 -408 -6z"/>
<path d="M3383 1713 c-23 -9 -15 -52 10 -58 12 -3 190 -4 396 -3 336 3 375 5
384 20 8 12 7 21 -2 32 -12 14 -58 16 -395 15 -209 0 -387 -3 -393 -6z"/>
</g>
</svg>
